<svg width="314" height="287" viewBox="0 0 314 287" fill="none" xmlns="http://www.w3.org/2000/svg">
<g clip-path="url(#clip0_48_539)">
<path d="M245.448 81.2764C245.582 80.8739 246.187 80.3372 246.589 80.3372C247.16 80.3372 247.999 80.6391 248.268 81.0752C248.872 82.0144 249.175 83.1213 249.645 84.3625C251.827 82.9536 253.505 81.4442 255.151 79.8676C256.695 78.3917 258.239 76.8822 259.884 75.5405C267.069 69.6032 273.649 63.1964 278.249 54.9446C279.457 52.7307 281.002 50.6846 282.378 48.5042C283.385 46.9277 284.392 45.3176 285.232 43.6404C287.313 39.5816 287.985 35.4557 287.582 31.2628L289.966 31.028C290.133 32.8393 290.335 34.6507 290.469 36.462C290.671 39.6151 289.932 42.6005 288.556 45.4182C287.716 47.0954 286.877 48.7726 285.937 50.4162C284.157 53.4352 282.177 56.3199 280.532 59.3724C276.738 66.3159 271.131 71.7165 265.357 76.9493C261.194 80.7397 256.896 84.396 252.666 88.0858C252.398 88.3206 252.263 88.7567 251.995 89.1927C252.633 90.0313 253.338 90.8364 253.875 91.7421C254.345 92.5471 254.043 93.6876 253.371 94.3249C252.666 94.9958 251.894 94.8616 251.122 94.5262C250.652 94.2914 250.115 94.0901 249.745 93.7211C247.865 91.9769 246.287 89.9643 245.314 87.5491C244.474 85.4694 244.743 83.3561 245.448 81.2764Z" fill="white"/>
<path d="M145.401 30.6926C144.528 30.9609 143.89 31.0616 143.42 31.3635C142.279 32.0679 141.305 33.0407 140.13 33.6444C139.66 33.9128 138.787 33.7786 138.283 33.4767C137.612 33.1077 137.713 32.3362 138.015 31.6654C138.686 30.1223 139.895 29.0489 141.305 28.2439C145.099 26.0971 149.228 24.9566 153.559 24.7889C154.063 24.7554 154.633 24.9231 155.103 25.1243C155.909 25.4933 156.48 26.1977 156.211 27.0363C156.043 27.5395 155.372 28.0426 154.835 28.2774C154.23 28.5122 153.492 28.3445 152.854 28.4116C151.41 28.5793 149.967 28.7806 148.322 29.0154C148.422 31.2293 148.489 33.2084 148.557 35.1874C148.859 43.9424 150.37 52.496 152.72 60.9155C152.955 61.8212 153.257 62.7268 153.626 63.599C155.305 67.6913 158.696 69.771 163.161 69.4691C164.235 69.3685 165.276 69.1672 166.317 68.966C175.717 67.0875 184.077 69.8046 191.899 74.8026C194.384 76.3791 195.894 78.6936 196.868 81.4442C199.084 87.6498 199.621 93.956 197.976 100.396C197.707 101.436 197.439 102.443 197.103 103.784C197.875 103.784 198.547 103.919 199.084 103.751C205.261 101.872 211.136 99.323 216.542 95.7003C224.364 90.4339 231.616 84.4967 237.995 77.5532C239.539 75.876 241.184 74.2994 242.796 72.6893C251.021 64.5382 258.306 55.6491 264.82 46.0892C265.659 44.8816 266.364 43.6069 267.069 42.2987C268.311 39.8836 268.177 37.3342 267.472 34.852C266.498 31.3635 263.141 29.5856 259.549 30.5249C258.004 30.9274 256.46 31.4306 254.983 32.1014C248.872 34.9191 242.997 37.9716 238.096 42.7683C231.851 48.9068 226.244 55.5149 221.175 62.6597C218.858 65.947 216.475 69.2008 213.957 72.3539C211.17 75.9095 206.47 76.312 202.978 73.4273C201.938 72.5887 201.098 71.5153 200.192 70.5425C198.748 68.9995 198.144 67.1881 198.278 65.0413C198.58 60.8819 199.252 56.7896 200.46 52.7979C203.851 41.7956 208.887 31.6654 216.877 23.1453C217.314 22.6756 217.717 22.1389 218.086 21.7029C217.582 20.6966 216.877 21.0991 216.307 21.1997C215.266 21.401 214.259 21.837 213.218 21.8706C212.714 21.9041 212.043 21.3004 211.741 20.7972C211.573 20.5288 211.875 19.7238 212.211 19.4219C212.782 18.8852 213.453 18.382 214.192 18.1137C217.112 17.0068 220.067 16.2353 223.223 16.8726C224.263 17.1074 225.371 17.0738 226.412 17.208C227.386 17.3422 228.292 17.7447 228.628 18.6839C228.829 19.2542 228.829 20.0257 228.628 20.5624C228.494 20.9314 227.755 21.2333 227.319 21.2333C226.144 21.1997 224.935 20.9314 223.491 20.7301C222.081 22.4408 220.638 24.1516 219.228 25.8958C217.784 27.6737 216.307 29.4179 215.031 31.2964C209.525 39.5146 205.631 48.4372 203.549 58.0978C203.113 60.1775 202.844 62.3243 202.676 64.4711C202.441 67.2217 205.53 70.7438 208.249 70.7773C208.954 70.8109 209.861 70.3413 210.297 69.8046C212.009 67.7584 213.621 65.6116 215.232 63.4648C218.858 58.668 222.283 53.67 226.177 49.0745C229.736 44.8816 233.731 41.1247 237.625 37.2336C238.666 36.1938 239.875 35.2881 241.117 34.5166C246.153 31.4641 251.29 28.6129 256.896 26.6003C263.376 24.2857 271.266 27.3047 272.273 36.4286C272.575 39.2798 272.206 42.0639 270.795 44.6132C269.956 46.1227 269.083 47.6657 268.076 49.0745C263.141 56.0852 258.038 63.0287 252.095 69.2343C244.877 76.7816 237.961 84.698 229.904 91.4067C221.108 98.7528 211.64 104.925 200.46 108.313C193.175 110.527 185.957 110.728 178.672 108.95C175.919 108.279 173.266 107.407 170.547 106.636C169.54 106.367 168.499 106.132 166.854 105.73C166.854 108.581 166.955 110.862 166.82 113.109C166.72 115.357 166.417 117.604 166.182 120.053C167.223 120.154 168.163 120.12 168.969 120.321C169.372 120.422 169.875 120.992 169.943 121.428C170.043 121.864 169.808 122.535 169.506 122.837C169.036 123.273 168.398 123.609 167.76 123.776C165.78 124.313 163.732 124.212 161.784 123.676C161.113 123.508 160.609 122.737 159.904 122.099C160.408 121.596 160.71 121.093 161.146 120.892C162.12 120.489 162.59 119.852 162.792 118.812C163.832 112.942 164.067 107.072 162.792 101.235C161.482 95.2978 158.326 90.3333 153.861 86.3081C152.418 84.9999 150.537 84.0271 148.691 83.3227C144.864 81.8467 140.969 81.0082 137.075 80.8404L137.243 77.6538C141.506 77.8215 145.636 78.7943 149.665 80.136C153.19 81.3101 156.144 83.3562 158.528 86.2074C161.482 89.7295 164 93.52 165.377 97.9477C165.914 99.6585 166.854 100.598 168.633 101.067C172.393 102.04 176.086 103.315 179.847 104.287C183.338 105.193 186.93 105.663 190.623 105.361C195.189 97.8136 195.156 90.065 192.336 82.1151C191.832 80.6727 190.993 79.4316 189.717 78.6266C187.904 77.4861 186.091 76.2785 184.144 75.4734C181.391 74.4 178.571 73.4608 175.717 72.857C173.669 72.4545 171.453 72.6558 169.338 72.7564C167.861 72.857 166.417 73.226 164.974 73.4944C157.823 74.8361 151.712 71.5153 149.396 64.6724C147.18 58.0643 145.569 51.2549 145.3 44.2442C145.233 39.85 145.401 35.4558 145.401 30.6926Z" fill="white"/>
<path d="M146.24 210.923C143.655 210.889 141.003 211.761 138.015 210.353C138.686 209.715 138.988 209.279 139.391 209.145C140.264 208.81 141.171 208.541 142.111 208.441C146.106 207.937 150.101 207.468 154.096 207.065C155.137 206.965 156.245 207.032 157.286 207.2C158.964 207.535 159.904 208.508 159.904 210.286C159.904 212.13 159.77 214.042 159.334 215.854C158.091 221.053 156.614 226.185 154.667 231.217C151.78 238.563 149.195 246.043 146.542 253.456C146.274 254.161 146.274 254.966 146.106 255.804C147.852 256.408 149.463 256.039 151.041 255.838C155.573 255.301 160.072 254.63 164.571 254.027C165.343 253.926 166.182 253.792 166.955 253.892C167.995 254.027 168.801 255.133 168.868 256.207C168.902 257.314 168.298 258.018 167.391 258.354C166.518 258.689 165.578 258.857 164.638 258.991C157.051 259.93 149.463 260.869 141.909 261.775C141.506 261.809 141.103 261.909 140.701 261.909C138.216 261.876 136.638 260.366 136.806 257.851C136.94 256.274 137.276 254.664 137.813 253.154C139.693 247.855 141.54 242.521 143.655 237.322C146.374 230.747 149.362 224.307 152.183 217.799C153.123 215.619 154.365 213.539 154.398 210.822C151.578 210.52 148.892 210.923 146.24 210.923Z" fill="white"/>
<path d="M127.406 216.726C127.439 220.751 127.338 224.743 127.171 228.768C126.835 236.684 126.432 244.567 126.029 252.45C125.928 254.463 125.895 256.475 125.727 258.488C125.66 259.259 125.358 260.064 124.955 260.702C124.317 261.775 122.605 261.775 121.866 260.769C120.758 259.327 120.49 257.616 120.422 255.838C120.221 249.666 119.986 243.527 119.818 238.999C120.087 229.037 120.12 220.718 121.262 212.466C121.362 211.795 121.362 211.124 121.564 210.487C122.202 208.608 124.485 208.206 125.727 209.782C126.197 210.386 126.566 211.191 126.734 211.929C127.103 213.539 127.406 215.149 127.406 216.726Z" fill="white"/>
<path d="M123.813 199.887C125.291 199.988 126.634 201.43 126.533 202.839C126.432 204.382 125.056 205.69 123.646 205.589C122.068 205.489 120.96 204.281 120.96 202.638C120.993 201.095 122.336 199.82 123.813 199.887Z" fill="white"/>
<path d="M113.708 219.846C114.111 227.628 113.305 235.376 112.634 243.125C112.365 246.345 111.895 249.532 111.391 252.685C111.156 254.127 110.72 255.536 110.25 256.945C109.948 257.817 109.545 258.689 109.075 259.494C107.094 262.647 103.804 263.05 101.353 260.299C98.298 256.878 95.6122 253.188 94.5378 248.626C93.7992 245.372 92.8928 242.119 92.4899 238.798C91.4827 230.68 91.4491 222.462 91.5163 214.311C91.5163 213.405 91.6841 212.432 92.0199 211.56C92.6913 209.849 94.7728 209.581 95.8807 211.057C96.7201 212.164 96.9551 213.506 97.0222 214.847C97.2572 218.604 97.4922 222.328 97.7273 226.085C98.1301 232.76 98.8687 239.435 100.245 246.01C100.782 248.492 101.722 250.873 102.595 253.255C102.864 253.959 103.435 254.563 103.871 255.167C105.449 254.63 105.516 253.255 105.852 252.182C107.262 247.821 108.101 243.326 108.336 238.764C108.739 231.016 108.941 223.233 109.243 215.451C109.276 214.646 109.243 213.841 109.31 213.036C109.411 212.03 109.981 211.292 110.955 210.99C111.694 210.755 112.667 211.46 112.869 212.634C113.238 215.015 113.574 217.43 113.708 219.846Z" fill="white"/>
<path d="M89.0991 266.572C89.1326 268.886 86.8833 270.53 84.6674 269.826C84.0967 269.658 83.526 269.054 83.2574 268.517C82.6531 267.343 82.2502 266.069 81.8138 264.794C81.008 262.547 80.2694 260.299 79.3294 257.482C77.8186 258.89 76.8785 259.83 75.8714 260.668C73.4541 262.681 70.7683 264.056 67.4781 264.056C64.4901 264.09 61.905 263.184 59.8235 261.104C58.5142 259.796 57.3391 258.287 56.3991 256.677C53.814 252.215 52.3368 247.385 51.9339 242.219C51.296 233.833 52.2025 225.649 55.1233 217.699C56.9027 212.902 58.917 208.273 61.67 203.946C63.483 201.095 65.7659 198.679 68.6196 196.835C72.5812 194.252 76.7443 194.319 80.9409 195.862C82.0823 196.298 83.0895 197.472 83.8281 198.512C85.7418 201.162 86.749 204.214 87.219 207.434C88.5619 216.625 88.9312 225.85 88.0247 235.074C87.6554 238.831 86.9168 242.521 85.4396 245.976C84.6339 247.855 84.7682 249.532 85.3725 251.377C86.5475 254.932 87.5547 258.555 88.4948 262.178C88.8641 263.62 89.0655 265.096 89.0991 266.572ZM84.1974 230.512C84.5332 223.535 84.2981 216.558 83.3245 209.648C82.9217 206.864 82.3509 204.114 80.8401 201.631C79.3294 199.082 78.1879 198.847 75.6028 200.424C73.5884 201.631 72.044 203.376 71.0033 205.388C69.0561 209.044 67.0081 212.701 65.6316 216.592C62.5765 225.179 62.0057 234.135 62.5765 243.158C62.8451 247.452 63.5165 251.712 66.1352 255.368C66.7731 256.24 67.3438 257.18 68.116 257.884C69.4925 259.159 70.9361 259.192 72.4805 258.085C74.562 256.576 76.1399 254.563 77.5164 252.45C76.0392 247.351 74.6627 242.756 73.387 238.093C73.0177 236.819 72.7826 235.477 72.7155 234.135C72.6484 232.357 73.857 231.351 75.5692 231.72C76.4421 231.921 77.315 232.391 77.9864 232.961C79.4301 234.202 80.2023 235.947 80.9073 237.724C81.2766 238.63 81.3102 239.77 82.5859 240.441C82.8545 239.703 83.1902 239.133 83.291 238.496C83.6267 235.846 84.0631 233.162 84.1974 230.512Z" fill="white"/>
<path d="M77.3485 107.306C74.7969 111.097 72.4468 114.652 70.0296 118.175C67.3438 122.066 64.02 125.386 60.2599 128.238C54.6196 132.531 48.3415 135.349 41.2912 136.456C35.7517 137.328 30.9507 135.953 26.5863 132.598C20.1067 127.6 16.8166 121.026 16.5816 112.875C16.4137 107.474 16.8166 102.174 18.2602 96.9414C19.7038 91.675 22.1882 87.0125 26.0491 83.0879C30.38 78.6936 34.9123 74.5007 39.9819 70.945C49.4494 64.3034 59.9242 60.6807 71.5404 60.4459C76.2741 60.3452 80.9072 60.8484 85.4731 62.0895C92.2213 63.8673 98.9023 65.8464 104.979 69.4356C106.926 70.5761 108.806 71.8507 110.72 73.0918C112.298 74.0981 113.876 75.138 115.42 76.1779C117.166 77.3519 119.08 77.6202 121.161 77.5867C126.398 77.4861 131.602 77.5196 136.84 77.6538C137.007 77.6538 137.209 77.6538 137.41 77.6873L137.243 80.874C133.516 80.7063 129.756 81.1088 125.962 82.1822C124.552 82.5847 123.243 83.2891 122 84.0606C121.295 84.4967 120.825 85.3688 120.288 86.0062C121.228 87.415 122.135 86.3081 122.974 86.3751C123.679 86.4422 124.317 86.5093 124.686 87.1802C125.156 88.0523 124.787 88.7567 124.149 89.327C121.195 91.9769 116.528 92.3459 113.339 90.1656C112.869 89.8301 112.432 89.0251 112.533 88.5219C112.6 88.0523 113.339 87.5156 113.876 87.3479C114.581 87.1131 115.42 87.1802 116.226 87.0796C116.528 85.1005 115.689 83.8258 114.48 82.6853C108.437 76.8487 101.622 72.1526 93.5977 69.4691C90.039 68.2951 86.4132 67.2217 82.7873 66.3495C73.5212 64.2027 64.4565 65.0749 55.4925 68.1609C47.3007 70.9786 40.5526 75.943 34.2409 81.6455C32.6294 83.0879 31.1858 84.6644 29.6414 86.1403C26.7877 88.8909 24.7398 92.1447 23.464 95.9016C21.1139 102.879 20.476 110.023 21.7854 117.302C22.8933 123.307 26.687 127.298 31.5886 130.418C34.3416 132.162 37.3632 132.364 40.519 131.961C46.8307 131.19 52.4374 128.741 57.3726 124.883C60.1927 122.669 62.8786 120.154 65.2958 117.504C68.1831 114.351 70.7682 110.896 73.454 107.575C73.8569 107.072 74.1591 106.468 74.5619 105.864C73.924 104.22 72.514 103.751 71.1711 103.248C69.996 102.812 68.8881 102.443 68.5524 100.933C69.4588 99.5914 70.8018 99.1218 72.3461 99.4572C78.0199 100.698 81.9144 104.086 83.8616 109.587C84.0295 110.057 84.0631 110.728 83.828 111.13C83.5259 111.667 82.9887 112.204 82.4516 112.405C82.0823 112.539 81.3772 112.204 81.0751 111.868C80.4372 111.197 80.0007 110.325 79.3964 109.621C78.8593 108.782 78.1207 108.078 77.3485 107.306Z" fill="white"/>
<path d="M43.1041 114.585C42.9698 114.921 42.2312 115.021 41.7276 115.156C41.4926 115.223 41.1905 115.156 40.9554 115.021C38.1353 113.646 35.7516 111.701 34.073 109.051C33.2673 107.81 33.0322 106.401 34.0059 104.724C35.3152 105.73 36.3895 106.568 37.4303 107.373C37.766 107.004 38.001 106.837 38.1017 106.602C41.8955 99.6249 47.2336 94.1237 53.7131 89.5618C60.9985 84.4296 69.1567 81.5784 77.8185 80.0353C81.6458 79.3645 85.6074 79.2638 89.4347 80.136C97.1229 81.9138 102.025 86.9789 104.845 94.1237C106.188 97.5116 106.523 101.134 106.423 104.791C106.389 105.797 106.221 106.87 107.094 107.944C108.101 107.239 108.941 106.636 109.813 106.032C116.797 101.403 124.35 98.6521 132.878 99.0211C138.216 99.2559 142.849 101.101 146.676 104.757C152.317 110.124 154.566 116.866 153.794 124.447C152.787 134.544 149.127 143.668 142.513 151.517C141.641 152.557 140.768 153.563 139.928 154.603C134.725 161.077 128.346 166.108 121.06 170.033C119.65 170.805 118.24 171.576 116.931 172.515C114.648 174.193 112.164 175.501 109.478 176.44C107.967 176.977 106.557 177.815 105.147 178.52C104.61 178.788 104.307 179.157 104.643 179.962C111.895 181.908 119.281 182.277 126.768 180.7C136.067 178.721 143.688 174.193 149.362 166.444C152.619 162.016 156.043 157.723 159.367 153.328C159.971 152.557 160.811 151.819 160.911 150.511C159.736 150.578 158.863 150.712 157.957 150.645C157.05 150.578 156.547 149.571 157.084 148.867C157.487 148.33 157.89 147.727 158.427 147.425C163.06 144.842 167.827 144.506 172.729 146.653C172.964 146.754 173.233 146.921 173.333 147.123C173.535 147.659 173.938 148.297 173.837 148.766C173.837 148.8 173.803 148.867 173.803 148.901C173.635 149.37 172.83 149.873 172.293 149.907C171.52 149.974 170.748 149.605 169.942 149.404C169.07 149.202 168.23 149.001 167.156 148.733C164.168 158.595 157.957 166.075 151.007 173.22C153.156 177.279 156.815 179.023 160.743 180.398C162.254 179.291 163.094 177.916 163.966 176.574C165.612 173.991 167.257 171.341 168.835 168.691C172.46 162.62 174.341 155.978 175.65 149.135C175.784 148.465 175.918 147.794 176.053 147.089C176.321 145.647 176.254 144.104 176.053 142.695C175.851 141.253 175.415 139.81 174.811 138.502C173.568 135.852 171.52 135.248 168.801 136.556C167.962 136.959 167.223 137.563 166.384 137.999C165.007 138.737 164.47 138.468 163.362 136.724C163.429 136.456 163.463 136.188 163.564 135.953C164.94 132.9 167.223 130.686 169.909 128.808C172.662 126.896 174.777 124.447 176.657 121.529C175.751 121.059 174.978 120.791 174.34 120.355C173.165 119.55 173.367 118.074 174.676 117.47C175.146 117.235 175.683 117.034 176.187 117.001C179.41 116.933 183.304 119.449 184.547 122.401C184.782 123.005 184.882 123.709 184.849 124.347C184.815 125.219 184.312 125.89 183.472 126.158C182.667 126.393 181.827 126.259 181.29 125.521C180.753 124.816 180.316 124.011 179.746 123.072C177.161 125.923 174.71 128.573 172.293 131.223C172.192 131.324 172.125 131.458 172.125 131.592C172.125 131.726 172.192 131.827 172.326 132.162C177.362 133.538 179.108 137.663 179.846 142.326C180.182 144.406 180.182 146.653 179.779 148.733C178.269 156.783 176.221 164.7 171.856 171.777C170.245 174.394 168.667 177.077 167.122 179.727C166.82 180.264 166.719 180.901 166.451 181.706C171.353 182.176 175.952 183.283 180.686 182.243C180.686 181.304 180.82 180.465 180.652 179.727C179.645 174.494 180.014 169.295 181.156 164.163C181.861 161.043 182.935 157.991 183.842 154.905C184.681 152.054 185.923 149.37 187.938 147.156C188.575 146.452 188.911 145.68 189.113 144.674C190.388 138.066 193.276 132.296 197.976 127.399C204.288 120.824 211.606 115.659 219.932 112.07C228.057 108.581 236.35 105.428 244.676 102.51C252.263 99.8261 259.716 96.8072 267.002 93.3857C275.932 89.1257 283.721 83.2891 290.033 75.5405C292.987 71.8842 294.666 67.8254 294.8 62.7268C293.726 63.2635 292.886 63.5989 292.148 64.1021C291.376 64.6388 290.771 65.3767 290.066 66.0141C289.227 66.7185 288.287 67.0875 286.877 66.8862C287.145 65.947 287.179 65.1084 287.582 64.5381C290.704 60.211 294.867 57.8965 300.272 58.1313C301.313 58.1648 302.387 58.5003 303.361 58.9363C304.033 59.2382 304.637 59.8756 305.073 60.5464C305.577 61.2844 305.409 62.0559 304.368 62.6932C302.152 61.9217 299.735 61.2173 297.016 62.2236C296.882 63.297 296.68 64.3033 296.647 65.3432C296.445 70.4754 294.565 74.9032 291.376 78.9619C285.198 86.8447 277.544 92.8155 268.58 97.042C261.664 100.296 254.546 103.046 247.429 105.83C239.338 109.051 231.079 111.902 223.055 115.223C214.796 118.644 207.477 123.609 201.266 130.083C199.218 132.196 197.338 134.51 196.129 137.227C195.894 137.764 195.357 138.368 196.062 139.173C196.499 139.106 197.036 139.106 197.506 138.938C204.556 136.087 212.043 135.181 219.53 134.544C220.873 134.41 222.215 134.309 223.525 134.141C230.34 133.403 237.055 132.196 243.669 130.418C245.716 129.848 247.798 129.143 249.678 128.204C251.088 127.5 252.33 126.426 253.438 125.286C254.009 124.716 254.11 123.676 254.58 122.569C243.568 120.791 233.899 123.474 224.801 128.841C225.573 132.229 225.573 132.229 223.424 133.538C220.503 131.189 219.227 128.137 219.63 124.38C219.765 123.34 219.932 122.099 221.108 121.73C222.518 121.261 222.82 122.602 223.391 123.474C223.525 123.676 223.793 123.81 224.129 124.078C225.64 123.407 227.251 122.77 228.829 122.032C235.342 118.879 242.292 117.537 249.51 117.738C252.028 117.806 254.58 118.175 257.064 118.745C259.414 119.281 260.086 120.791 259.347 123.005C257.971 127.131 255.553 130.384 251.424 132.095C249.812 132.766 248.234 133.605 246.556 133.974C240.949 135.248 235.309 136.556 229.635 137.496C226.916 137.932 224.196 138.234 221.443 138.502C219.362 138.703 217.314 138.905 215.232 139.139C209.491 139.777 203.817 140.85 198.446 143.03C197.573 143.366 196.599 143.601 195.894 144.204C192.571 146.955 189.448 149.94 188.24 154.301C187.098 158.293 186.125 162.318 185.218 166.377C184.412 169.832 184.647 173.32 185.017 176.775C185.185 178.419 185.285 180.264 186.964 181.639C187.635 180.901 188.307 180.297 188.81 179.56C191.228 176.138 192.839 172.281 194.35 168.423C196.129 163.928 198.312 159.735 201.199 155.743C204.321 151.416 208.148 148.364 213.05 146.519C215.669 145.513 218.321 144.54 220.973 143.567C221.208 142.561 221.41 141.588 221.645 140.515C222.249 140.582 222.652 140.548 222.988 140.682C223.491 140.85 223.928 141.152 224.398 141.454C226.983 142.997 227.621 147.458 226.613 149.773C226.378 150.276 225.673 150.712 225.103 150.88C224.398 151.114 223.827 150.611 223.558 149.94C223.256 149.102 223.021 148.23 222.685 147.19C216.676 148.632 211.136 150.343 207.141 155.173C206.47 156.012 205.698 156.75 204.892 157.454C202.945 159.198 201.669 161.379 200.796 163.828C199.755 166.846 198.647 169.899 197.674 172.951C196.801 175.668 195.693 178.218 193.88 180.432C190.758 184.222 189.515 188.683 189.448 193.48C189.381 197.505 189.448 201.531 189.75 205.522C190.254 212.902 191.026 220.215 193.511 227.225C193.712 227.795 193.578 228.634 195.156 228.768C195.491 228.332 196.029 227.594 196.599 226.856C199.184 223.267 201.904 219.745 204.355 216.055C205.966 213.606 207.343 210.99 208.585 208.306C211.808 201.497 214.124 194.352 216.374 187.207C217.28 184.289 218.12 181.304 219.026 178.352C219.899 175.534 219.731 172.75 218.321 170.167C216.844 167.484 215.669 164.498 212.144 163.76C211.909 163.727 211.674 163.492 211.472 163.358C210.734 162.821 210.532 162.05 210.599 161.245C210.666 160.339 211.237 159.769 212.076 159.567C212.849 159.4 213.688 159.366 214.46 159.131C223.726 156.347 233.16 154.435 242.661 152.725C247.966 151.785 253.203 150.712 258.206 148.666C261.496 147.324 264.45 145.613 266.901 143.03C269.419 140.38 270.93 137.261 270.863 133.638C270.829 130.988 270.225 128.338 269.822 125.722C269.788 125.521 269.452 125.386 269.083 125.085C268.345 125.789 267.64 126.56 266.867 127.231C266.196 127.802 265.424 127.869 264.618 127.433C264.047 127.131 263.879 126.024 264.349 125.252C266.129 122.2 268.714 120.221 272.34 119.852C272.978 119.785 273.683 119.952 274.287 120.187C275.193 120.556 275.395 121.864 274.623 122.535C274.052 123.005 273.347 123.34 272.81 123.642C273.112 126.829 273.381 129.781 273.716 132.699C274.321 137.831 272.675 142.225 269.251 145.949C266.968 148.465 264.182 150.309 261.093 151.718C256.93 153.597 252.599 155.006 248.1 155.911C239.17 157.723 230.239 159.635 221.343 161.513C220.47 161.681 219.462 161.714 219.093 162.788C219.127 162.922 219.127 163.09 219.194 163.19C219.53 163.76 219.865 164.364 220.268 164.901C223.861 169.798 224.599 175.165 222.82 180.935C219.832 190.663 216.911 200.424 212.849 209.782C211.472 213.003 209.894 216.089 207.813 218.906C204.321 223.669 200.762 228.366 197.237 233.062C196.666 233.8 196.163 234.571 195.626 235.376C195.827 236.215 195.961 237.02 196.196 237.758C198.513 244.936 201.803 251.712 205.865 258.018C208.753 262.513 212.916 265.7 217.817 267.847C219.496 268.585 221.275 269.255 223.391 268.417C222.786 266.639 222.249 264.995 221.645 263.419C217.851 253.624 217.381 243.594 219.295 233.364C220.537 226.621 222.618 220.08 225.472 213.875C228.326 207.669 231.582 201.665 234.604 195.526C236.282 192.172 237.961 188.818 239.304 185.329C240.076 183.35 240.244 181.17 240.546 179.056C240.647 178.453 240.479 177.614 240.11 177.144C238.263 174.897 236.316 172.717 234.268 170.369C233.664 171.274 233.194 172.046 232.623 172.784C231.817 173.824 230.609 174.125 229.836 173.555C228.93 172.851 229.165 171.912 229.299 170.972C229.333 170.838 229.366 170.704 229.434 170.57C230.81 167.081 233.496 165.002 236.954 163.861C238.163 163.459 239.27 163.693 240.11 164.398C240.479 166.41 238.297 166.444 238.062 167.953C239.002 169.798 240.613 171.241 242.023 172.817C243.199 174.159 244.575 174.629 246.287 174.595C250.987 174.494 255.688 174.427 260.321 173.589C264.618 172.817 268.58 171.308 271.803 168.222C277.376 162.788 280.901 156.314 281.807 148.565C282.882 139.341 281.404 130.384 278.786 121.596C278.081 119.214 276.57 117.034 275.328 114.82C274.656 113.579 273.548 112.975 272.038 112.942C270.023 112.875 268.009 112.606 266.028 112.371C265.122 112.237 264.182 112.07 263.309 111.768C262.033 111.298 261.798 109.554 262.906 108.883C263.812 108.346 264.853 107.944 265.86 107.776C270.795 107.038 275.529 105.663 280.129 103.717C286.709 100.9 292.685 97.1091 297.855 92.0775C302.455 87.5491 305.745 82.2157 307.289 75.9765C312.191 56.3535 306.517 40.0512 291.611 26.7344C291.141 26.3319 290.536 26.0971 289.831 25.6945C289.764 26.3654 289.697 26.7344 289.73 27.1369C289.865 28.378 289.966 29.6191 290.1 30.8938L287.716 31.1286C287.515 28.8812 287.011 26.6338 286.272 24.3863C285.769 22.8098 284.762 21.6357 283.285 20.7972C276.167 16.6377 268.714 13.3169 260.724 11.3714C257.971 10.7005 255.184 10.3651 252.364 10.4657C248.234 10.5999 244.81 12.277 241.99 15.1618C239.774 17.4763 237.726 19.9921 235.678 22.4743C232.086 26.8686 229.366 31.7659 226.681 36.764C226.009 38.0386 225.203 39.3133 224.297 40.4538C223.76 41.1246 222.887 41.1917 222.081 40.7892C221.242 40.3531 221.04 39.5481 221.376 38.743C222.048 37.1329 222.719 35.5228 223.592 34.0134C227.621 27.204 231.918 20.5623 237.055 14.4909C238.095 13.2834 239.136 12.0758 240.11 10.9353C239.808 8.68787 238.163 7.94991 236.517 7.37967C231.179 5.46768 225.64 4.42782 220 4.0253C213.319 3.55568 207.309 5.46768 201.837 9.3252C197.036 12.6796 193.343 17.0738 189.851 21.7028C189.213 22.5414 188.743 23.5477 188.307 24.5205C187.165 27.1034 186.091 29.6862 184.983 32.2691C182.129 38.9778 181.458 45.9885 182.364 53.1668C182.432 53.6364 182.633 54.1061 182.834 54.7434C183.506 54.6092 184.009 54.5757 184.513 54.4079C185.285 54.1396 185.99 53.7706 186.762 53.5358C187.736 53.2339 188.945 53.8042 189.482 54.7434C189.918 55.4813 189.616 56.5212 188.609 57.125C187.367 57.8965 186.057 58.6009 184.748 59.2718C180.048 61.6198 175.18 61.5528 170.245 60.2781C169.07 59.9762 168.398 59.0034 168.465 57.93C168.532 56.6554 169.372 55.7162 170.782 55.6155C172.259 55.4813 173.736 55.5484 175.213 55.4478C175.952 55.3807 176.691 55.1459 177.429 54.9782C177.429 53.1668 177.496 51.5567 177.429 49.9802C177.026 41.1246 178.134 32.571 182.23 24.5876C182.432 24.1851 182.398 23.6148 182.465 23.0446C181.794 22.7762 181.324 22.5414 180.82 22.3737C176.053 20.9984 171.319 19.556 166.518 18.2814C156.379 15.5643 146.106 15.5308 135.765 17.0067C131.77 17.577 127.943 18.7845 124.317 20.663C120.255 22.7427 117.099 25.7616 114.849 29.7198C113.171 32.6716 113.473 35.2545 115.655 37.8709C115.991 38.2734 116.36 38.6759 116.763 39.0449C119.113 41.2588 121.027 43.8417 122.94 46.4245C126.6 51.2884 129.655 56.4541 131.669 62.1901C131.77 62.4249 132.005 62.5926 132.341 62.9281C133.113 62.6932 133.986 62.4249 134.859 62.1901C135.9 61.9217 136.94 61.5863 138.082 62.6597C137.88 63.2635 137.813 64.1692 137.343 64.6388C136.302 65.6451 135.094 66.5508 133.818 67.2887C130.461 69.3014 126.701 69.4355 122.907 69.2007C122.437 69.1672 121.866 68.4292 121.665 67.8925C121.564 67.6242 122.068 66.8862 122.437 66.6849C123.444 66.1482 124.552 65.7793 125.761 65.2761C125.19 61.8882 123.981 58.9028 122.84 55.9174C122.303 54.4415 121.396 52.9991 120.355 51.8251C117.569 48.5713 114.581 45.4853 111.66 42.3658C111.123 41.7955 110.384 41.393 109.746 40.9234C106.154 38.2734 101.957 37.2671 97.66 37.0323C81.2429 36.1266 65.3629 38.4411 50.0873 44.9486C37.4303 50.3492 26.922 58.3326 18.4616 69.0665C13.5264 75.3392 9.66552 82.2157 7.28184 89.8636C5.30104 96.2034 4.29386 102.744 5.56963 109.319C7.81901 120.925 13.4928 130.854 21.651 139.408C22.6582 140.481 23.8333 141.42 25.0083 142.292C31.4207 147.022 38.3368 150.745 45.9914 153.094C53.881 155.542 62.0392 156.18 70.1974 156.716C70.7346 156.75 71.3053 156.75 71.8089 156.649C77.5835 155.408 83.358 154.133 88.4947 151.081C96.0821 146.62 102.461 140.682 108.706 134.611C109.813 133.504 110.854 132.263 111.459 130.217C110.888 129.814 110.183 129.378 109.578 128.841C109.108 128.405 108.571 127.902 108.336 127.298C108.135 126.728 108.034 125.89 108.303 125.454C108.571 125.017 109.377 124.682 109.948 124.648C111.391 124.581 112.533 125.353 113.339 126.493C116.092 130.284 118.979 134.007 120.288 138.636C120.49 139.274 120.725 139.944 120.725 140.582C120.725 141.42 120.355 142.158 119.482 142.427C118.576 142.695 117.871 142.427 117.434 141.622C117.032 140.917 116.83 140.146 116.494 139.408C115.89 138.1 115.219 136.825 114.446 135.248C113.54 136.12 112.869 136.724 112.231 137.429C110.955 138.804 109.847 140.347 108.437 141.588C103.972 145.446 99.5066 149.303 94.9071 152.959C91.6841 155.509 89.1997 158.628 86.9167 161.949C86.1781 163.056 85.7417 164.364 85.2045 165.572C84.7345 166.679 85.0031 167.652 85.7081 168.557C87.6889 171.107 90.1397 173.186 92.8256 174.998C94.6385 176.205 96.2836 176.608 98.4322 175.635C104.173 173.052 110.216 171.174 115.353 167.383C116.427 166.612 117.669 166.075 118.845 165.371C120.792 164.197 122.773 163.056 124.653 161.781C129.722 158.393 133.784 153.966 137.746 149.37C143.151 143.131 146.576 135.986 148.355 128.003C149.094 124.581 149.396 121.126 148.624 117.638C146.609 108.514 139.089 103.415 131.77 103.751C130.964 103.784 130.159 103.684 129.353 103.784C119.952 104.958 111.761 108.111 106.49 116.766C101.286 125.454 94.2356 132.397 85.7752 137.865C84.8688 138.468 83.9287 139.005 83.0894 139.643C80.4036 141.722 77.3484 143.03 74.1255 144.104C73.4204 144.339 72.749 144.775 72.1111 145.077C72.6147 146.116 73.1518 146.921 73.3868 147.794C73.7226 148.968 72.6818 150.041 71.5403 149.739C70.6674 149.504 69.6938 149.102 69.0895 148.498C65.6315 144.976 63.9529 140.749 64.0536 135.785C64.0536 135.282 64.2215 134.745 64.3893 134.242C64.6579 133.47 65.6987 132.766 66.2358 133.068C66.773 133.37 67.3102 133.873 67.5116 134.443C67.7466 135.047 67.5787 135.751 67.6459 136.422C67.7466 137.16 67.948 137.898 68.1495 138.77C68.8881 138.636 69.4252 138.603 69.8953 138.401C79.3964 134.611 87.7896 129.143 94.5713 121.529C99.4394 116.061 102.159 109.621 101.655 102.04C100.917 91.1048 93.2956 82.5176 80.2693 84.027C77.617 84.3289 74.9648 84.8321 72.3797 85.4694C60.092 88.5554 50.0537 95.0965 42.4662 105.26C41.3583 106.77 40.284 108.279 39.9147 110.325C40.4854 110.761 40.989 111.164 41.4926 111.566C41.9962 111.969 42.7012 112.304 42.9698 112.841C43.272 113.277 43.3055 114.082 43.1041 114.585ZM308.531 41.9297C312.896 50.6846 314.172 60.0433 313.198 69.7039C311.821 83.222 305.342 93.6876 294.33 101.503C290.268 104.388 286.004 106.87 281.371 108.749C280.397 109.151 279.457 109.621 278.316 110.158C278.618 110.795 278.752 111.298 279.021 111.667C282.009 115.759 283.855 120.288 284.896 125.219C286.34 132.062 287.28 138.938 287.011 145.949C286.675 155.475 283.117 163.626 276.738 170.637C272.81 174.964 267.908 177.58 262.201 178.62C259.582 179.09 256.896 179.358 254.21 179.526C251.424 179.727 248.637 179.962 246.052 180.197C245.75 180.7 245.515 180.901 245.481 181.17C244.776 186.57 242.493 191.434 240.009 196.197C238.028 199.988 235.947 203.745 234 207.569C229.971 215.485 226.681 223.67 224.767 232.357C222.585 242.42 222.887 252.316 226.714 262.01C227.319 263.486 227.856 265.029 228.426 266.538C229.937 270.832 227.218 274.287 223.189 274.421C221.309 274.488 219.462 274.32 217.683 273.549C211.271 270.866 205.698 267.008 201.434 261.44C194.417 252.215 189.784 241.917 187.468 230.613C185.285 220.08 183.774 209.481 184.177 198.713C184.278 196.432 184.48 194.151 184.58 191.904C184.681 190.461 185.017 189.019 184.58 187.442C183.405 187.442 182.364 187.409 181.29 187.442C174.273 187.811 167.357 187.174 160.542 185.43C155.607 184.155 151.31 181.84 148.053 177.849C147.818 177.547 147.482 177.312 146.979 176.876C146.341 177.211 145.636 177.513 144.998 177.949C135.027 185.094 123.914 187.509 111.828 186.268C106.322 185.698 101.017 184.39 95.9478 182.142C87.2189 178.285 80.7729 172.213 77.2477 163.224C77.1134 162.855 76.8784 162.519 76.5763 161.882C74.5955 161.781 72.4804 161.681 70.3653 161.513C68.3509 161.379 66.3365 161.211 64.3557 161.077C56.164 160.574 48.14 159.098 40.4183 156.213C33.9723 153.798 28.0299 150.41 22.5239 146.351C18.7302 143.534 15.4736 140.146 12.7542 136.288C9.83338 132.095 7.38256 127.667 5.0996 123.072C-0.674931 111.332 -0.77565 99.323 3.42096 87.1466C4.62958 83.6245 6.17394 80.136 7.98687 76.8822C17.5551 59.9427 31.2193 47.6657 49.4158 40.4538C59.5884 36.395 70.0296 33.6779 81.0079 33.0741C85.9431 32.8058 90.9119 32.5374 95.8807 32.5374C99.9094 32.5374 103.905 33.0071 107.933 34.5501C108.303 33.8792 108.773 33.2419 109.008 32.5374C111.257 24.9901 116.259 19.8244 123.209 16.4365C128.211 13.9878 133.583 12.8137 139.089 12.3106C145.501 11.7068 151.947 11.8745 158.393 12.4112C160.643 12.5789 162.926 13.015 165.108 13.5853C170.681 15.0276 176.221 16.6377 181.76 18.2143C182.935 18.5497 184.077 18.8852 185.42 19.2541C186.158 18.4826 186.93 17.7447 187.602 16.9732C190.556 13.4846 193.746 10.2644 197.338 7.41321C204.523 1.64369 212.58 -0.804998 221.745 0.234857C226.009 0.738012 230.239 1.50952 234.335 2.85127C237.928 4.0253 241.318 5.63539 243.669 8.95622C244.541 8.72142 245.28 8.5537 246.052 8.31889C251.055 6.84297 256.09 6.91006 261.16 7.91637C272.138 10.0967 282.042 14.6587 291.073 21.1661C298.594 26.6338 304.402 33.6444 308.531 41.9297Z" fill="white"/>
<path d="M54.3509 132.263C54.7873 133.001 55.7609 133.47 55.4588 134.577C55.0559 135.114 54.7873 135.651 55.4588 136.188C57.171 135.852 58.5811 134.879 59.9911 134.007C63.7513 131.659 67.545 129.378 71.1709 126.862C75.3339 123.944 79.0605 120.489 82.4514 116.699C83.0557 116.028 83.66 115.357 84.3315 114.72C84.6672 114.384 85.0701 114.619 85.4058 114.82C85.8423 115.089 86.3794 115.39 86.2116 115.994C86.0437 116.598 85.7751 117.235 85.4394 117.772C84.3986 119.449 82.9886 120.791 81.5449 122.099C79.0605 124.414 76.274 126.359 74.1253 129.009L73.8567 129.11C73.3531 129.21 72.9503 129.512 72.6817 129.948L72.7488 129.881C71.3388 129.948 70.3987 130.921 69.3244 131.592C64.9599 134.343 60.8305 137.429 55.8617 139.508C56.701 140.079 57.3724 140.481 57.9768 140.951C58.3461 141.219 58.2118 141.655 58.0103 141.991C57.8089 142.292 57.5067 142.796 57.2717 142.762C55.2238 142.661 53.1423 142.561 51.0943 142.292C49.8857 142.125 49.0799 141.219 48.3078 140.28C47.8377 139.71 47.737 139.106 48.2071 138.536C49.6507 136.691 51.1279 134.879 52.5715 133.068C52.7394 132.598 53.0751 132.33 53.5116 132.095C53.8137 132.028 54.0823 132.095 54.3509 132.263Z" fill="#FBBD0D"/>
<path d="M217.549 112.036C217.28 111.768 217.045 111.432 216.743 111.197C215.803 110.426 216.139 109.654 216.642 108.849C216.307 108.313 215.937 108.581 215.534 108.749C210.196 111.13 205.362 114.451 200.292 117.302C199.722 117.604 199.151 117.94 198.614 118.275C197.674 118.845 196.902 118.577 196.129 117.94C195.559 117.47 195.458 116.732 195.995 116.33C196.532 115.961 197.069 115.625 197.607 115.29C201.971 112.74 206.336 110.191 210.666 107.675C210.935 106.535 209.76 106.535 209.323 105.965C208.786 105.26 209.256 104.791 209.424 104.187C209.525 104.053 209.592 103.918 209.693 103.784C210.23 103.415 210.834 103.18 211.439 102.946C211.741 102.812 212.076 102.711 212.379 102.644C213.386 102.375 214.359 102.744 215.367 102.711C217.314 102.644 219.194 102.241 221.04 101.738C221.645 101.57 222.283 101.403 222.921 101.369C224.297 101.369 225.203 102.812 224.7 104.086C224.163 105.394 223.357 106.568 222.383 107.608C221.51 108.547 220.436 109.319 220.033 110.627C219.328 111.399 218.522 111.835 217.549 112.036Z" fill="#FBBD0D"/>
<path d="M212.211 232.29C212.211 230.881 212.211 230.211 212.211 229.607C212.043 223.334 213.99 217.565 216.642 211.996C218.892 207.3 221.745 202.94 224.666 198.612C228.628 192.776 230.407 186.134 231.683 179.358C231.884 178.352 231.75 177.279 231.716 176.239C231.683 175.736 231.515 175.232 231.481 174.696C231.414 173.958 231.884 173.455 232.489 173.186C233.059 172.918 234.1 173.522 234.302 174.26C234.772 175.769 235.107 177.279 234.872 178.855C234.637 180.532 234.436 182.21 233.966 183.853C233.026 187.107 231.985 190.294 230.911 193.514C230.206 195.627 229.031 197.505 227.822 199.35C225.069 203.61 222.148 207.736 219.899 212.332C218.287 215.619 216.944 218.973 216.038 222.529C215.669 223.938 215.534 225.313 215.568 226.688C216.34 227.057 216.575 226.487 216.911 226.185C217.414 225.716 217.884 225.313 218.623 225.649C219.395 226.051 219.798 226.655 219.597 227.561C219.362 228.567 219.059 229.573 218.757 230.546C217.851 233.263 216.944 235.98 216.004 238.664C215.568 239.905 214.628 240.14 213.554 239.334C213.05 238.932 212.479 238.529 212.143 237.993C210.599 235.41 208.887 232.995 207.007 230.647C206.671 230.211 206.671 229.674 207.108 229.271C207.544 228.902 208.081 228.768 208.518 229.104C209.592 229.942 210.633 230.881 212.211 232.29Z" fill="#FBBC0A"/>
<path d="M198.815 59.406C199.487 59.2047 199.822 59.1041 200.192 58.9699C200.863 58.7016 201.467 58.8358 201.937 59.3725C202.508 59.9762 202.307 60.58 201.904 61.1167C200.46 62.9952 199.587 65.142 198.681 67.3223C198.211 68.4628 197.036 68.6641 196.129 67.9261C195.928 67.7584 195.726 67.5907 195.559 67.3894C194.316 65.5445 192.906 63.8673 191.295 62.3578C190.892 61.9553 190.825 61.4857 191.228 61.0161C191.597 60.58 192.067 60.3788 192.604 60.4794C193.511 60.6136 194.014 61.6534 195.29 61.5528C195.525 59.3054 195.827 57.0244 196.062 54.7099C196.801 46.6594 198.345 38.7766 201.467 31.2628C204.388 24.2857 208.417 18.2143 214.829 13.9207C219.093 11.0695 223.793 9.89548 228.829 9.86194C230.038 9.86194 231.179 10.0297 232.052 10.9353C232.287 11.1701 232.489 11.6398 232.422 11.9416C232.354 12.2435 231.952 12.6796 231.649 12.7132C230.877 12.8473 230.105 12.8138 229.333 12.8138C221.275 12.6461 215.064 16.2688 210.129 22.3067C207.477 25.5604 205.53 29.2167 203.985 33.1077C201.266 40.0513 199.822 47.2967 199.151 54.7099C199.084 56.0516 198.949 57.494 198.815 59.406Z" fill="#FBBD0D"/>
<path d="M279.256 65.142C280.129 64.5382 280.733 63.7667 281.136 62.7939C282.009 61.7876 283.049 60.949 283.52 59.6743C285.366 57.6617 287.213 55.6491 289.093 53.67C291.812 50.8188 294.666 48.1353 298.829 48.1688C299.634 46.9613 299.064 45.9214 299.198 44.8816C299.299 44.1771 299.735 43.674 300.34 43.4056C300.843 43.1708 301.951 43.8417 302.22 44.5126C302.421 44.9822 302.522 45.5189 302.656 46.022C303.093 47.7999 303.529 49.5441 303.932 51.322C304.234 52.7643 303.764 53.6365 302.522 54.1061C301.045 54.6428 299.567 55.1124 298.09 55.582C297.754 55.6826 297.251 55.7162 296.949 55.5485C296.512 55.3472 296.042 54.9782 295.807 54.5757C295.539 54.1061 295.807 53.5358 296.244 53.2339C296.647 52.9321 297.15 52.7308 297.587 52.4624C297.822 52.1941 298.157 51.9593 298.224 51.5568C297.519 51.5903 296.781 51.2213 296.176 51.8587C294.129 52.7979 292.584 54.408 291.107 56.0181C287.548 59.9427 283.99 63.9009 281.002 68.2951C277.208 73.8969 272.575 78.7943 268.311 83.9935C267.841 84.5973 267.237 85.1005 266.632 85.6036C266.196 85.9726 265.726 85.9726 265.189 85.7378C264.081 85.2346 263.947 84.2619 264.517 83.591C267.002 80.7733 269.385 77.8886 271.87 75.0374C274.522 71.9178 277.04 68.6305 279.256 65.142Z" fill="#FBBC0A"/>
<path d="M253.908 134.51C253.002 134.645 252.095 134.779 251.222 134.343C250.618 134.041 250.114 133.638 250.182 132.867C250.249 132.297 250.652 131.894 251.122 131.76C252.364 131.391 253.606 131.022 254.915 130.821C257.098 130.452 259.28 130.15 261.462 129.848C261.966 129.781 262.503 129.747 263.006 129.781C263.947 129.848 264.652 130.821 264.316 131.693C263.342 134.242 262.335 136.758 261.294 139.274C261.059 139.844 260.723 140.481 259.884 140.313C258.911 140.112 258.373 139.508 258.373 138.435C258.373 138.2 258.541 137.932 258.575 137.697C258.575 137.06 258.105 136.758 257.601 137.06C256.728 137.596 255.855 138.2 254.983 138.77C250.417 141.655 245.28 143.098 240.143 144.54C239.304 144.775 238.633 144.406 237.995 143.903C237.357 143.366 237.457 142.259 238.196 141.957C238.8 141.722 239.438 141.655 240.076 141.454C245.213 139.944 250.282 138.401 254.781 135.383C254.983 134.577 254.815 134.175 253.908 134.51Z" fill="#FBBD0D"/>
<path d="M103.77 53.5694C98.2308 52.5631 92.6576 52.2947 87.051 52.5295C74.2597 53.0662 62.0728 55.951 50.9937 62.5591C39.8139 69.2008 30.7828 77.9892 24.8069 89.696C24.5383 90.2327 24.3368 90.9371 23.4304 90.9706C22.9268 89.5282 23.3296 88.153 24.0011 86.8783C25.109 84.7986 26.1498 82.6853 27.4591 80.7733C38.2024 65.2761 52.6052 55.0788 71.1374 50.9865C80.0678 49.0074 89.0989 48.0682 98.2643 49.2422C99.1708 49.3764 100.077 49.3764 100.984 49.4435C101.252 49.4435 101.487 49.3764 101.756 49.3429C102.125 48.5378 101.42 48.2359 101.017 47.7999C100.48 47.2296 99.8423 46.76 99.4058 46.1227C99.0365 45.586 98.9694 44.848 99.4058 44.2778C99.8423 43.7075 100.514 43.6069 101.185 43.8082C101.789 44.0094 102.427 44.2442 102.931 44.6468C106.389 47.3973 109.646 50.4163 112.533 53.7706C112.969 54.2738 113.271 54.844 113.339 55.5149C113.406 56.2193 113.171 56.9573 112.466 57.0579C109.377 57.4605 106.288 57.7959 103.2 58.0642C102.528 58.1313 101.957 57.7288 101.789 56.9908C101.655 56.4541 101.722 55.951 102.125 55.5485C102.394 55.2801 102.73 55.0453 103.032 54.8105C103.334 54.5757 103.67 54.3409 103.972 54.1396C104.307 54.039 104.341 53.8713 104.14 53.6029C104.072 53.6029 103.938 53.5694 103.77 53.5694Z" fill="#FBBC0A"/>
<path d="M136.672 129.479C135.362 129.546 134.187 130.217 133.314 129.076C132.979 128.64 132.676 128.137 133.146 127.701C135.161 125.688 137.242 123.709 139.324 121.764C139.76 121.361 140.264 121.529 140.768 121.797C141.573 122.3 142.144 122.971 142.379 123.911C143.017 126.426 143.688 128.942 144.293 131.458C144.427 131.995 144.058 132.431 143.655 132.8C143.151 133.202 142.681 132.934 142.245 132.699C141.305 132.162 141.103 130.988 140.264 130.15C139.257 131.424 138.854 132.9 138.384 134.309C136.134 140.984 132.408 146.687 127.003 151.282C125.928 152.221 124.888 153.228 123.88 154.234C122.638 155.442 121.195 156.314 119.617 156.951C119.012 157.186 118.374 157.354 117.737 157.421C116.763 157.521 115.689 156.985 115.42 156.314C115.151 155.71 115.856 154.771 117.032 154.536C119.214 154.133 120.825 152.926 122.37 151.483C123.914 150.075 125.425 148.666 126.936 147.19C131.837 142.259 134.724 136.255 136.672 129.479Z" fill="#FBBC0A"/>
<path d="M175.986 87.6498C173.333 84.0942 170.412 80.7733 166.552 78.4588C162.388 75.943 157.957 74.2323 153.089 73.7291C151.813 73.595 150.504 73.4273 149.261 73.1589C148.321 72.9576 147.684 72.0855 147.919 71.5488C148.221 70.9115 148.791 70.6431 149.496 70.6096C149.899 70.6096 150.269 70.576 150.672 70.6431C160.341 71.7165 168.667 75.4399 175.18 82.786C175.885 83.5575 176.523 84.396 177.194 85.1676C177.866 85.9055 178.302 86.9118 179.309 87.3479C180.115 86.9789 179.813 86.241 179.779 85.7043C179.712 84.6644 179.477 83.6581 179.41 82.6182C179.376 82.1151 179.779 81.679 180.249 81.4107C180.786 81.1423 181.223 81.31 181.659 81.6455C182.196 82.048 182.599 82.5511 182.666 83.2556C183.002 86.1068 183.338 88.9245 183.64 91.7757C183.674 92.1446 183.607 92.5472 183.506 92.9162C183.304 93.6206 182.834 93.9895 182.062 93.8889C181.928 93.8889 181.794 93.8554 181.693 93.8218C179.444 92.8155 177.161 91.9434 174.71 91.4402C173.971 91.2725 173.3 90.6687 173.468 89.7295C173.602 88.9915 174.24 88.7567 174.911 88.6561C175.918 88.958 176.12 88.4884 175.986 87.6498Z" fill="#FBBD0D"/>
<path d="M45.0514 276.769C44.3464 276.736 43.4399 275.494 43.8428 274.488C44.1449 273.65 44.5814 272.777 45.2193 272.14C47.8379 269.356 50.4902 266.672 53.176 263.955C54.1161 263.016 55.224 262.278 56.6676 262.547C57.2719 262.647 57.6077 262.983 57.4734 263.62C57.3055 264.257 57.1376 264.895 56.8019 265.465C54.519 269.188 51.8331 272.543 48.543 275.427C47.6029 276.165 46.6293 276.836 45.0514 276.769Z" fill="#FBBE10"/>
<path d="M31.8909 230.11C31.2194 229.942 30.4472 229.808 29.7086 229.573C28.9364 229.338 28.2314 228.835 28.1643 227.997C28.03 226.923 29.0372 226.823 29.7422 226.655C32.3944 226.051 35.0803 225.514 37.7661 224.944C38.5719 224.776 39.3105 224.978 39.9819 225.447C40.5527 225.883 40.7877 226.454 40.7205 227.125C40.6534 227.829 40.3848 228.332 39.6798 228.6C37.1618 229.54 34.5095 229.405 31.8909 230.11Z" fill="#FBC017"/>
<path d="M95.1086 280.996C95.2429 279.352 94.8401 277.608 95.7801 276.031C96.2501 275.226 97.1902 275.126 97.6602 275.931C99.4395 278.849 99.7417 282.103 99.406 285.423C99.3053 286.43 98.3988 287 97.4252 287C96.5187 287 96.0151 286.463 95.6458 285.692C94.9072 284.216 95.1758 282.606 95.1086 280.996Z" fill="#FBC01A"/>
<path d="M175.918 263.184C177.731 263.385 179.477 263.117 181.055 263.922C181.727 264.291 182.398 264.727 182.297 265.7C182.197 266.673 181.626 267.343 180.619 267.578C180.484 267.612 180.35 267.679 180.249 267.679C176.993 267.444 173.77 267.075 170.916 265.331C170.647 265.163 170.547 264.693 170.513 264.358C170.513 264.224 170.849 263.955 171.084 263.888C171.554 263.687 172.058 263.486 172.561 263.452C173.736 263.285 174.911 263.251 175.918 263.184Z" fill="#FBBF15"/>
<path d="M134.389 273.784C134.49 273.415 134.557 273.012 134.658 272.643C134.758 272.241 135.665 271.972 135.967 272.308C136.403 272.777 136.907 273.247 137.209 273.817C138.317 275.897 139.358 278.01 140.398 280.09C140.801 280.895 140.566 281.599 139.895 282.17C139.19 282.773 138.485 282.74 137.746 282.27C137.075 281.868 136.504 281.298 136.202 280.56C135.295 278.413 134.557 276.165 134.389 273.784Z" fill="#FBC01A"/>
<path d="M50.9603 185.195C51.1282 185.228 51.699 185.262 52.1354 185.497C54.4855 186.704 56.332 188.549 58.1785 190.394C58.4471 190.662 58.5814 191.065 58.6821 191.434C58.8836 192.105 58.6485 192.709 58.1114 193.145C57.6414 193.514 57.1713 193.514 56.6677 193.279C56.1977 193.078 55.6941 192.876 55.2912 192.574C53.109 191.065 51.3632 189.187 50.121 186.838C49.7517 186.268 50.121 185.295 50.9603 185.195Z" fill="#FBC018"/>
<path d="M95.6123 190.327C95.6459 190.126 95.6795 189.187 95.8473 188.314C95.9145 188.013 96.2838 187.61 96.5859 187.509C96.8881 187.409 97.3917 187.577 97.5931 187.811C98.1639 188.516 98.6674 189.287 99.0367 190.126C99.9768 192.071 100.044 194.185 99.8089 196.298C99.7418 196.969 99.5068 197.64 98.7682 197.807C97.8953 198.009 97.291 197.472 96.8545 196.767C95.8137 194.99 95.8137 192.977 95.6123 190.327Z" fill="#FBBF13"/>
<path d="M152.619 189.354C152.753 190.931 152.015 192.071 151.477 193.245C150.94 194.453 150.202 195.526 149.228 196.432C148.624 197.002 147.952 197.371 147.113 196.969C146.341 196.633 145.938 195.593 146.341 194.587C147.314 192.105 148.825 189.992 151.209 188.683C151.813 188.348 152.619 188.885 152.619 189.354Z" fill="#FBC018"/>
<path d="M165.511 223.2C164.537 223.066 163.933 222.864 163.731 222.126C163.496 221.321 163.496 220.516 164.235 220.013C165.981 218.806 167.995 218.269 170.077 217.967C170.513 217.9 171.084 218.202 171.52 218.47C172.024 218.739 172.326 219.242 171.957 219.745C170.278 221.992 167.895 222.864 165.511 223.2Z" fill="#FBBF17"/>
</g>
<defs>
<clipPath id="clip0_48_539">
<rect width="313" height="287" fill="white" transform="translate(0.5)"/>
</clipPath>
</defs>
</svg>
