<svg width="32" height="32" viewBox="0 0 32 32" fill="none" xmlns="http://www.w3.org/2000/svg">
<mask id="mask0_116_235" style="mask-type:alpha" maskUnits="userSpaceOnUse" x="0" y="0" width="32" height="32">
<rect width="32" height="32" fill="#D9D9D9"/>
</mask>
<g mask="url(#mask0_116_235)">
<path d="M15.9334 24C16.4001 24 16.7945 23.8388 17.1167 23.5166C17.439 23.1944 17.6001 22.8 17.6001 22.3333C17.6001 21.8666 17.439 21.4722 17.1167 21.15C16.7945 20.8277 16.4001 20.6666 15.9334 20.6666C15.4667 20.6666 15.0723 20.8277 14.7501 21.15C14.4279 21.4722 14.2667 21.8666 14.2667 22.3333C14.2667 22.8 14.4279 23.1944 14.7501 23.5166C15.0723 23.8388 15.4667 24 15.9334 24ZM14.7334 18.8666H17.2001C17.2001 18.1333 17.2834 17.5555 17.4501 17.1333C17.6167 16.7111 18.089 16.1333 18.8667 15.4C19.4445 14.8222 19.9001 14.2722 20.2334 13.75C20.5667 13.2277 20.7334 12.6 20.7334 11.8666C20.7334 10.6222 20.2779 9.66663 19.3667 8.99996C18.4556 8.33329 17.3779 7.99996 16.1334 7.99996C14.8667 7.99996 13.839 8.33329 13.0501 8.99996C12.2612 9.66663 11.7112 10.4666 11.4001 11.4L13.6001 12.2666C13.7112 11.8666 13.9612 11.4333 14.3501 10.9666C14.739 10.5 15.3334 10.2666 16.1334 10.2666C16.8445 10.2666 17.3779 10.4611 17.7334 10.85C18.089 11.2388 18.2667 11.6666 18.2667 12.1333C18.2667 12.5777 18.1334 12.9944 17.8667 13.3833C17.6001 13.7722 17.2667 14.1333 16.8667 14.4666C15.889 15.3333 15.289 15.9888 15.0667 16.4333C14.8445 16.8777 14.7334 17.6888 14.7334 18.8666ZM16.0001 29.3333C14.1556 29.3333 12.4223 28.9833 10.8001 28.2833C9.17786 27.5833 7.76675 26.6333 6.56675 25.4333C5.36675 24.2333 4.41675 22.8222 3.71675 21.2C3.01675 19.5777 2.66675 17.8444 2.66675 16C2.66675 14.1555 3.01675 12.4222 3.71675 10.8C4.41675 9.17774 5.36675 7.76663 6.56675 6.56663C7.76675 5.36663 9.17786 4.41663 10.8001 3.71663C12.4223 3.01663 14.1556 2.66663 16.0001 2.66663C17.8445 2.66663 19.5779 3.01663 21.2001 3.71663C22.8223 4.41663 24.2334 5.36663 25.4334 6.56663C26.6334 7.76663 27.5834 9.17774 28.2834 10.8C28.9834 12.4222 29.3334 14.1555 29.3334 16C29.3334 17.8444 28.9834 19.5777 28.2834 21.2C27.5834 22.8222 26.6334 24.2333 25.4334 25.4333C24.2334 26.6333 22.8223 27.5833 21.2001 28.2833C19.5779 28.9833 17.8445 29.3333 16.0001 29.3333Z" fill="white"/>
</g>
</svg>
