<svg width="12" height="15" viewBox="0 0 12 15" fill="none" xmlns="http://www.w3.org/2000/svg">
<path d="M1.33333 14.1667C0.966667 14.1667 0.652778 14.0361 0.391667 13.775C0.130556 13.5139 0 13.2 0 12.8333V3.50001C0 3.13334 0.130556 2.81945 0.391667 2.55834C0.652778 2.29723 0.966667 2.16668 1.33333 2.16668H2V0.833344H3.33333V2.16668H8.66667V0.833344H10V2.16668H10.6667C11.0333 2.16668 11.3472 2.29723 11.6083 2.55834C11.8694 2.81945 12 3.13334 12 3.50001V12.8333C12 13.2 11.8694 13.5139 11.6083 13.775C11.3472 14.0361 11.0333 14.1667 10.6667 14.1667H1.33333ZM1.33333 12.8333H10.6667V6.16668H1.33333V12.8333Z" fill="#999999"/>
</svg>
