<svg width="14" height="15" viewBox="0 0 14 15" fill="none" xmlns="http://www.w3.org/2000/svg">
<path d="M5.16647 14.1667L4.89981 12.0333C4.75536 11.9778 4.61925 11.9111 4.49147 11.8333C4.36369 11.7556 4.23869 11.6722 4.11647 11.5833L2.13314 12.4167L0.299805 9.25001L2.01647 7.95001C2.00536 7.87223 1.9998 7.79723 1.9998 7.72501V7.27501C1.9998 7.20279 2.00536 7.12779 2.01647 7.05001L0.299805 5.75001L2.13314 2.58334L4.11647 3.41668C4.23869 3.32779 4.36647 3.24445 4.4998 3.16668C4.63314 3.0889 4.76647 3.02223 4.89981 2.96668L5.16647 0.833344H8.83314L9.0998 2.96668C9.24425 3.02223 9.38036 3.0889 9.50814 3.16668C9.63592 3.24445 9.76092 3.32779 9.88314 3.41668L11.8665 2.58334L13.6998 5.75001L11.9831 7.05001C11.9942 7.12779 11.9998 7.20279 11.9998 7.27501V7.72501C11.9998 7.79723 11.9887 7.87223 11.9665 7.95001L13.6831 9.25001L11.8498 12.4167L9.88314 11.5833C9.76092 11.6722 9.63314 11.7556 9.49981 11.8333C9.36647 11.9111 9.23314 11.9778 9.0998 12.0333L8.83314 14.1667H5.16647ZM7.03314 9.83334C7.67758 9.83334 8.22758 9.60557 8.68314 9.15001C9.13869 8.69445 9.36647 8.14445 9.36647 7.50001C9.36647 6.85557 9.13869 6.30557 8.68314 5.85001C8.22758 5.39445 7.67758 5.16668 7.03314 5.16668C6.37758 5.16668 5.8248 5.39445 5.3748 5.85001C4.92481 6.30557 4.6998 6.85557 4.6998 7.50001C4.6998 8.14445 4.92481 8.69445 5.3748 9.15001C5.8248 9.60557 6.37758 9.83334 7.03314 9.83334Z" fill="#999999"/>
</svg>
